<?xml version="1.0" encoding="utf-8"?>
<!-- Generator: Adobe Illustrator 16.0.0, SVG Export Plug-In . SVG Version: 6.00 Build 0)  -->
<!DOCTYPE svg PUBLIC "-//W3C//DTD SVG 1.1//EN" "http://www.w3.org/Graphics/SVG/1.1/DTD/svg11.dtd">
<svg version="1.1" id="Layer_1" xmlns="http://www.w3.org/2000/svg" xmlns:xlink="http://www.w3.org/1999/xlink" x="0px" y="0px"
	 width="226px" height="114.333px" viewBox="0 10.167 226 114.333" enable-background="new 0 10.167 226 114.333"
	 xml:space="preserve">
<path fill="#8BC53F" d="M58.573,31.276c0,0,19.892,16.413,2.241,33.02c-17.649,16.608-13.813,24.635-11.993,38.415
	c0,0-15.094-15.657-1.671-35.441C60.579,47.484,59.543,39.238,58.573,31.276z"/>
<path fill="#FFDD15" d="M13.691,40.545c0,0-17.531,20.069,2.375,33.895c19.905,13.817,14.166,22.576,14.397,36.473
	c0,0,15.748-17.959-0.45-35.554C13.817,57.767,13.912,48.56,13.691,40.545z"/>
<g>
	<path fill="#009345" d="M34.875,65.531C62.24,52.82,48.158,13.707,48.158,13.707S16.995,41.226,34.875,65.531z"/>
	<path fill="#8BC53F" d="M34.875,65.531c14.647-17.361-7.371-39.592-7.371-39.592S14.967,54.604,34.875,65.531z"/>
	<path fill="#FFDD15" d="M34.844,65.537c4.934-15.498-15.72-24.167-15.72-24.167S18.684,63.767,34.844,65.537z"/>
</g>
<path fill="#8BC53F" d="M119.239,168.61c0,0,19.892,16.413,2.241,33.02c-17.648,16.608-13.813,24.635-11.993,38.415
	c0,0-15.094-15.657-1.671-35.441C121.245,184.818,120.209,176.572,119.239,168.61z"/>
<path fill="#FFDD15" d="M74.357,177.879c0,0-17.531,20.069,2.374,33.895c19.905,13.817,14.166,22.576,14.397,36.473
	c0,0,15.748-17.959-0.45-35.554C74.483,195.101,74.578,185.895,74.357,177.879z"/>
<g>
	<path fill="#009345" d="M95.541,202.865c27.365-12.711,13.283-51.824,13.283-51.824S77.66,178.561,95.541,202.865z"/>
	<path fill="#8BC53F" d="M95.541,202.865c14.646-17.361-7.371-39.592-7.371-39.592S75.633,191.938,95.541,202.865z"/>
	<path fill="#FFDD15" d="M95.51,202.871c4.934-15.498-15.721-24.168-15.721-24.168S79.35,201.101,95.51,202.871z"/>
</g>
<text transform="matrix(1 0 0 1 60.7402 83.4434)"><tspan x="0" y="0" font-family="'Montserrat-Bold'" font-size="18.7518">SHREE ENVIRO</tspan><tspan x="0" y="22.502" font-family="'Montserrat-Bold'" font-size="18.7518">SERVICES</tspan></text>
</svg>
